<?xml version="1.0" standalone="no"?>
<!DOCTYPE svg PUBLIC "-//W3C//DTD SVG 20010904//EN"
 "http://www.w3.org/TR/2001/REC-SVG-20010904/DTD/svg10.dtd">
<svg version="1.0" xmlns="http://www.w3.org/2000/svg"
 width="700.000000pt" height="700.000000pt" viewBox="0 0 700.000000 700.000000"
 preserveAspectRatio="xMidYMid meet">
<metadata>
Created by potrace 1.14, written by Peter Selinger 2001-2017
</metadata>
<g transform="translate(0.000000,700.000000) scale(0.100000,-0.100000)"
fill="#000000" stroke="none">
<path d="M1995 6993 c-341 -41 -580 -113 -844 -254 -382 -204 -697 -522 -900
-910 -111 -212 -191 -449 -221 -654 -6 -44 -14 -91 -18 -105 -3 -14 -7 -704
-8 -1535 -2 -1610 -2 -1594 47 -1815 66 -297 189 -573 363 -815 28 -38 53 -72
56 -75 3 -3 28 -32 55 -65 119 -142 288 -291 465 -408 247 -163 606 -301 865
-331 28 -4 82 -10 120 -15 39 -5 727 -9 1530 -9 1577 0 1564 -1 1802 54 90 20
266 74 278 85 5 5 15 9 23 9 20 0 267 121 347 170 259 159 513 404 682 660
127 191 259 491 298 675 2 11 11 52 19 90 15 72 20 99 35 220 11 78 9 3067 -1
3101 -3 12 -9 45 -13 75 -17 132 -74 342 -134 494 -55 136 -183 368 -258 465
-225 292 -442 481 -729 636 -223 122 -506 215 -720 239 -32 4 -79 11 -104 15
-42 8 -2971 11 -3035 3z m2958 -437 c104 -8 235 -31 322 -56 39 -12 84 -25
100 -29 95 -26 282 -118 405 -199 47 -31 87 -58 90 -61 3 -3 28 -24 55 -46
152 -122 309 -308 412 -491 83 -148 166 -371 192 -521 6 -32 13 -71 16 -88 15
-88 18 -316 18 -1560 0 -1249 -3 -1485 -18 -1570 -72 -413 -234 -729 -509
-999 -76 -74 -262 -222 -296 -234 -8 -3 -17 -8 -20 -11 -15 -17 -165 -91 -265
-132 -66 -26 -221 -74 -269 -83 -23 -4 -74 -13 -121 -21 -92 -15 -333 -18
-1565 -18 -1207 0 -1469 3 -1560 18 -31 5 -125 22 -164 30 -107 22 -334 112
-461 184 -377 214 -673 585 -798 1001 -47 155 -58 212 -73 375 -9 91 -9 2817
0 2915 36 412 217 804 505 1091 236 234 544 403 857 468 141 30 149 31 254 37
52 3 96 7 97 7 5 5 2732 -1 2796 -7z"/>
<path d="M2925 4199 c-99 -98 -241 -237 -315 -309 -74 -73 -326 -320 -560
-550 -234 -230 -494 -485 -579 -567 -121 -118 -150 -151 -135 -154 11 -3 123
-4 250 -4 l231 1 209 206 c115 113 270 266 344 338 74 73 319 313 543 534 225
220 472 463 550 539 77 75 139 138 136 138 -2 1 -114 2 -249 3 l-245 2 -180
-177z"/>
<path d="M4074 4371 c-10 -2 -44 -29 -75 -60 -31 -31 -218 -214 -415 -407
-197 -194 -433 -425 -524 -514 -91 -89 -303 -297 -472 -463 -170 -165 -308
-304 -308 -307 0 -4 471 -6 490 -1 7 1 166 156 663 645 225 220 478 469 562
551 243 237 539 530 552 546 10 12 -20 14 -221 14 -128 0 -241 -2 -252 -4z"/>
<path d="M4945 4249 c-259 -253 -850 -832 -1407 -1379 l-260 -255 251 0 251 0
281 275 c154 151 346 340 427 419 81 79 349 342 596 585 246 242 451 443 455
446 3 3 11 12 18 20 10 13 -18 15 -235 15 l-247 1 -130 -127z"/>
</g>
</svg>
